# Blender v3.1.2 OBJ File: 'Map_Pin.blend'
# www.blender.org
o Map_Pin
v 0.176384 1.977324 0.236771
v 0.811840 1.694528 0.236771
v 0.246315 2.030983 0.236771
v 0.094940 2.595906 0.236771
v 0.007552 3.266531 0.236771
v 0.007552 2.607410 0.236771
v 0.007552 1.932083 0.236771
v 0.004386 0.006215 0.236771
v 0.094940 1.943588 0.236771
v 0.870790 1.771354 0.236771
v 0.299974 2.100914 0.236771
v 0.094940 1.943588 -0.078924
v 0.007552 1.932083 -0.078924
v 0.970371 2.011760 -0.078924
v 0.970371 2.011760 0.236771
v 0.870790 1.771354 -0.078924
v -0.079844 2.595906 0.236771
v -0.161280 2.562169 0.236771
v -0.161280 2.562169 -0.078924
v 0.870790 2.768139 -0.078924
v 0.970371 2.527733 -0.078924
v 0.299974 2.438579 -0.078924
v -0.813535 1.716414 -0.078924
v 0.004386 0.006215 -0.078924
v 0.176384 2.562169 0.236771
v 0.505944 3.132986 0.236771
v 0.265538 3.232566 0.236771
v 0.246315 2.508510 0.236771
v 0.712384 2.974579 0.236771
v 0.333704 2.357142 0.236771
v 0.345216 2.269747 0.236771
v 0.970371 2.527733 0.236771
v -0.250435 3.232566 -0.078924
v -0.250435 3.232566 0.236771
v -0.231212 2.508510 0.236771
v -0.231212 2.508510 -0.078924
v -0.490841 3.132986 -0.078924
v -0.490841 3.132986 0.236771
v -0.989233 2.269747 -0.078924
v -0.955268 2.011760 -0.078924
v -0.955268 2.011760 0.236771
v 0.870790 2.768139 0.236771
v 0.299974 2.438579 0.236771
v 1.004336 2.269747 0.236771
v -0.697281 2.974579 -0.078924
v -0.697281 2.974579 0.236771
v -0.855694 2.768139 -0.078924
v -0.855694 2.768139 0.236771
v 0.176384 2.562169 -0.078924
v 0.094940 2.595906 -0.078924
v 0.505944 3.132986 -0.078924
v 0.246315 2.508510 -0.078924
v 0.712384 2.974579 -0.078924
v 0.265538 3.232566 -0.078924
v 0.007552 3.266531 -0.078924
v 0.007552 2.607410 -0.078924
v -0.079844 2.595906 -0.078924
v -0.955268 2.527733 -0.078924
v -0.955268 2.527733 0.236771
v -0.079844 1.943588 0.236771
v -0.161280 1.977324 -0.078924
v -0.161280 1.977324 0.236771
v -0.989233 2.269747 0.236771
v 0.811840 1.694528 -0.078924
v 0.345216 2.269747 -0.078924
v 1.004336 2.269747 -0.078924
v 0.299974 2.100914 -0.078924
v 0.333704 2.357142 -0.078924
v 0.333704 2.182352 -0.078924
v -0.813535 1.716414 0.236771
v 0.246315 2.030983 -0.078924
v -0.855694 1.771354 -0.078924
v 0.333704 2.182352 0.236771
v -0.284878 2.438579 0.236771
v -0.079844 1.943588 -0.078924
v -0.284878 2.100914 0.236771
v -0.231212 2.030983 0.236771
v -0.318608 2.182352 0.236771
v -0.284878 2.438579 -0.078924
v -0.330112 2.269747 0.236771
v -0.231212 2.030983 -0.078924
v -0.318608 2.357142 0.236771
v -0.284878 2.100914 -0.078924
v -0.855694 1.771354 0.236771
v -0.318608 2.182352 -0.078924
v -0.330112 2.269747 -0.078924
v -0.318608 2.357142 -0.078924
v 0.176384 1.977324 -0.078924
vn 0.0000 0.0000 1.0000
vn -0.1305 0.9914 0.0000
vn 0.9239 -0.3827 0.0000
vn 0.3827 -0.9239 0.0000
vn 0.0000 0.0000 -1.0000
vn -0.9021 -0.4315 0.0000
vn 0.6087 -0.7934 0.0000
vn -0.3827 0.9239 0.0000
vn -0.9914 -0.1305 0.0000
vn -0.6088 0.7934 0.0000
vn -0.7933 0.6088 0.0000
vn -0.9239 0.3827 0.0000
vn 0.3827 0.9239 0.0000
vn -0.9914 0.1305 0.0000
vn 0.9021 -0.4315 0.0000
vn 0.7934 -0.6088 0.0000
vn -0.7933 -0.6088 0.0000
vn 0.9914 -0.1305 0.0000
vn 0.9914 0.1305 0.0000
vn 0.9239 0.3827 0.0000
vn 0.1305 0.9914 0.0000
vn -0.3827 -0.9239 0.0000
vn 0.6087 0.7934 0.0000
vn 0.7933 0.6088 0.0000
vn -0.6087 -0.7934 0.0000
vn -0.7934 -0.6087 0.0000
vn -0.7934 -0.6088 0.0000
vn -0.9239 -0.3827 0.0000
vn -0.9914 -0.1306 0.0000
vn -0.9914 0.1306 0.0000
vn -0.7934 0.6088 0.0000
vn -0.7934 0.6087 0.0000
vn 0.1305 -0.9914 0.0000
vn 0.7933 -0.6088 0.0000
vn -0.6087 0.7934 0.0000
vn -0.1305 -0.9914 0.0000
vn 0.7934 0.6088 0.0000
vn 0.6088 0.7934 0.0000
s off
f 1//1 2//1 3//1
f 4//1 5//1 6//1
f 7//1 8//1 9//1
f 10//1 11//1 2//1
f 9//2 12//2 13//2
f 9//2 13//2 7//2
f 14//3 15//3 10//3
f 14//3 10//3 16//3
f 17//4 18//4 19//4
f 20//5 21//5 22//5
f 8//6 23//6 24//6
f 4//1 25//1 26//1
f 27//1 4//1 26//1
f 5//1 4//1 27//1
f 25//1 28//1 26//1
f 29//1 26//1 28//1
f 30//1 31//1 32//1
f 33//2 34//2 5//2
f 18//7 35//7 36//7
f 18//7 36//7 19//7
f 33//8 37//8 38//8
f 33//8 38//8 34//8
f 39//9 40//9 41//9
f 42//1 43//1 32//1
f 9//1 8//1 1//1
f 15//1 11//1 10//1
f 44//1 31//1 15//1
f 37//10 45//10 46//10
f 37//10 46//10 38//10
f 45//11 47//11 48//11
f 45//11 48//11 46//11
f 49//5 50//5 51//5
f 52//5 49//5 51//5
f 53//5 52//5 51//5
f 20//5 52//5 53//5
f 54//5 51//5 50//5
f 55//5 54//5 50//5
f 56//5 57//5 55//5
f 47//12 58//12 48//12
f 58//12 59//12 48//12
f 60//1 8//1 7//1
f 61//13 62//13 60//13
f 58//14 39//14 63//14
f 58//14 63//14 59//14
f 63//9 39//9 41//9
f 24//15 64//15 8//15
f 14//5 65//5 66//5
f 21//5 66//5 65//5
f 16//5 67//5 14//5
f 65//5 68//5 21//5
f 68//5 22//5 21//5
f 2//15 8//15 64//15
f 69//5 14//5 67//5
f 65//5 14//5 69//5
f 64//16 16//16 2//16
f 10//16 2//16 16//16
f 43//1 42//1 28//1
f 42//1 29//1 28//1
f 16//5 64//5 67//5
f 70//6 23//6 8//6
f 71//5 67//5 64//5
f 72//17 23//17 70//17
f 50//5 56//5 55//5
f 30//1 32//1 43//1
f 66//18 44//18 15//18
f 66//18 15//18 14//18
f 73//1 15//1 31//1
f 17//1 38//1 18//1
f 6//1 5//1 17//1
f 34//1 17//1 5//1
f 38//1 17//1 34//1
f 46//1 35//1 38//1
f 48//1 74//1 46//1
f 21//19 32//19 44//19
f 21//19 44//19 66//19
f 11//1 15//1 73//1
f 52//5 20//5 22//5
f 21//20 20//20 32//20
f 42//20 32//20 20//20
f 3//1 2//1 11//1
f 44//1 32//1 31//1
f 8//1 62//1 70//1
f 13//21 75//21 60//21
f 13//21 60//21 7//21
f 76//1 70//1 77//1
f 60//13 75//13 61//13
f 78//1 41//1 76//1
f 62//1 8//1 60//1
f 36//5 79//5 45//5
f 47//5 45//5 79//5
f 80//1 63//1 78//1
f 25//22 50//22 49//22
f 62//23 61//23 81//23
f 62//23 81//23 77//23
f 82//1 63//1 80//1
f 77//1 70//1 62//1
f 76//24 77//24 81//24
f 76//24 81//24 83//24
f 28//25 25//25 49//25
f 28//25 49//25 52//25
f 74//1 59//1 82//1
f 70//1 76//1 84//1
f 78//20 76//20 83//20
f 78//20 83//20 85//20
f 28//26 52//26 22//26
f 28//27 22//27 43//27
f 84//1 76//1 41//1
f 35//1 46//1 74//1
f 80//19 78//19 85//19
f 80//19 85//19 86//19
f 43//28 22//28 68//28
f 43//28 68//28 30//28
f 18//1 38//1 35//1
f 30//29 68//29 65//29
f 30//29 65//29 31//29
f 82//18 80//18 86//18
f 82//18 86//18 87//18
f 31//30 65//30 69//30
f 31//30 69//30 73//30
f 41//1 78//1 63//1
f 48//1 59//1 74//1
f 63//1 82//1 59//1
f 74//3 82//3 87//3
f 74//3 87//3 79//3
f 23//5 61//5 24//5
f 85//5 83//5 40//5
f 83//5 81//5 23//5
f 13//5 12//5 24//5
f 13//5 24//5 75//5
f 73//12 69//12 67//12
f 73//12 67//12 11//12
f 2//1 1//1 8//1
f 17//4 19//4 57//4
f 70//17 84//17 72//17
f 11//31 67//31 71//31
f 11//32 71//32 3//32
f 6//33 17//33 57//33
f 6//33 57//33 56//33
f 35//34 74//34 79//34
f 35//34 79//34 36//34
f 3//35 71//35 88//35
f 3//35 88//35 1//35
f 4//36 6//36 56//36
f 4//36 56//36 50//36
f 84//28 41//28 72//28
f 40//28 72//28 41//28
f 25//22 4//22 50//22
f 1//8 88//8 12//8
f 1//8 12//8 9//8
f 53//37 29//37 42//37
f 53//37 42//37 20//37
f 88//5 71//5 64//5
f 64//5 24//5 88//5
f 12//5 88//5 24//5
f 53//38 51//38 26//38
f 53//38 26//38 29//38
f 51//13 54//13 27//13
f 51//13 27//13 26//13
f 54//21 55//21 5//21
f 54//21 5//21 27//21
f 19//5 36//5 37//5
f 33//5 57//5 37//5
f 45//5 37//5 36//5
f 33//5 55//5 57//5
f 19//5 37//5 57//5
f 55//2 33//2 5//2
f 81//5 61//5 23//5
f 75//5 24//5 61//5
f 72//5 40//5 83//5
f 23//5 72//5 83//5
f 86//5 85//5 39//5
f 40//5 39//5 85//5
f 39//5 58//5 87//5
f 87//5 86//5 39//5
f 58//5 47//5 79//5
f 79//5 87//5 58//5